<svg version="1.1" id="Camada_1" xmlns="http://www.w3.org/2000/svg" x="0" y="0" viewBox="0 0 2500 635.6" style="enable-background:new 0 0 2500 635.6" xml:space="preserve"><style>.st0{fill:#2496ed}</style><path class="st0" d="M1180.7 401.9c.1-10.6-2.1-21.1-6.2-30.8-4-9.4-9.8-18-17-25.4-7.3-7.3-15.9-13.2-25.4-17.3-20-8.5-42.5-8.5-62.5 0-19 8.2-34.2 23.4-42.2 42.5-8.3 19.7-8.3 41.9 0 61.7 8 19.1 23.1 34.3 42.2 42.5 20 8.5 42.5 8.5 62.5 0 9.5-4.1 18.1-9.9 25.4-17.3 7.2-7.3 13-15.9 17-25.4 4.1-9.6 6.2-20 6.2-30.5zm-79.9-127.3c29.1-.4 57.3 9.4 79.9 27.8V189.2c-.3-12.8 9.8-23.4 22.6-23.7h1.1c6.3-.2 12.5 2.2 17 6.7 4.6 4.4 7.1 10.6 6.9 17V402c.7 33.9-12.9 66.5-37.3 90-49.7 49.7-130.3 49.6-180-.1s-49.6-130.3.1-180c23.8-23.8 56.1-37.2 89.7-37.3zm408.6 127.3c.7 33.9-12.9 66.5-37.3 90-49.7 49-129.7 48.4-178.7-1.2-49-49.7-48.4-129.7 1.2-178.7 49.7-49 129.7-48.4 178.7 1.2 11.3 11.5 20.4 25 26.6 39.9 6.3 15.5 9.7 32 9.8 48.7h-.3zm-127.3-79.8c-10.8-.1-21.5 2.1-31.4 6.4-19 8.2-34.2 23.4-42.2 42.5-8.3 19.7-8.3 41.9 0 61.7 8 19.1 23.1 34.3 42.2 42.5 20 8.5 42.5 8.5 62.5 0 9.5-4.1 18.1-9.9 25.4-17.3 7.2-7.3 13-15.9 17-25.4 8.4-19.7 8.4-42 0-61.7-4-9.4-9.8-18-17-25.4-7.3-7.3-15.9-13.2-25.4-17.3-9.8-4.1-20.2-6.2-30.8-6.1h-.3zm348 135c12.8-.3 23.4 9.8 23.7 22.6v1.1c0 6.6-2.8 13-7.7 17.5-53.2 45.9-133.6 40-179.5-13.2s-40-133.6 13.2-179.5c47.8-41.2 118.5-41.2 166.3 0 5.3 4.5 8.3 11.1 8.2 18 .2 6.4-2.2 12.5-6.7 17s-10.6 6.9-17 6.8c-5.6 0-11.1-1.9-15.4-5.5-7.2-6.2-15.4-11.2-24.3-14.8-8.9-3.4-18.3-5.1-27.8-5-10.6 0-21.1 2.1-30.8 6.2-9.5 4-18.1 9.8-25.4 17-7.3 7.3-13.2 15.9-17.2 25.4a81.05 81.05 0 0 0 0 62.3c4 9.5 9.9 18.1 17.2 25.4 7.3 7.2 16 13 25.4 17 9.7 4.2 20.2 6.3 30.8 6.2 9.5.1 18.9-1.5 27.8-4.9 8.8-3.5 17-8.4 24.1-14.6 4.5-3.3 9.9-5.1 15.4-5h-.3zm51.2 48.2v-316c-.1-13.1 10.4-23.8 23.4-23.9h.5c6.3-.1 12.3 2.4 16.7 6.9 4.5 4.5 7.1 10.6 6.9 17v177.3l135.9-88.4c3.8-2.4 8.2-3.7 12.7-3.6 3.2 0 6.4.6 9.3 1.8 2.9 1.1 5.5 2.9 7.7 5.1 2.1 2.3 3.9 4.9 5.1 7.7 1.3 2.9 1.9 6 1.9 9.1.5 7.5-2.9 14.6-9.1 18.9l-95.2 61.7 97.7 110c4.3 4.5 6.6 10.4 6.6 16.6 0 3.1-.6 6.2-1.9 9.1-1.2 2.8-3 5.5-5.1 7.7-2.2 2.2-4.8 3.9-7.7 5.1-3 1.2-6.1 1.9-9.3 1.8-5.9.2-11.6-2.1-15.9-6.2l-105-117.9-27.7 18.2v82c.1 6.3-2.4 12.4-6.9 16.8-4.4 4.6-10.4 7.1-16.7 7-6.4.1-12.5-2.4-17-7-4.4-4.4-6.8-10.5-6.7-16.7h-.2zm449.5-127.1a76.9 76.9 0 0 0-11.5-23.1c-10-13.7-24-23.9-40-29.2-8.1-2.7-16.6-4.1-25.1-4.1-8.6 0-17.1 1.4-25.2 4.1-8 2.7-15.6 6.5-22.5 11.5-6.8 4.9-12.8 10.9-17.7 17.7-5 7-8.8 14.8-11.1 23.1h153.1zm-10.2 79.4c12.8-.4 23.5 9.6 23.9 22.3v1.3c.1 6.4-2.3 12.5-6.8 17-53.2 46-133.5 40.1-179.5-13-46-53.2-40.1-133.5 13-179.5 23.1-20 52.7-31 83.3-31 51.4.3 97.7 31.1 117.9 78.3 6.3 15.5 9.5 32.2 9.3 48.9.2 6.4-2.3 12.5-6.9 17-4.5 4.5-10.6 6.9-17 6.7H2078c2.5 8.3 6.3 16.1 11.3 23.1 4.9 6.8 10.9 12.8 17.7 17.7 6.8 5 14.3 8.8 22.3 11.5 8.2 2.7 16.7 4.1 25.4 4.1 9.4.1 18.7-1.4 27.5-4.5 8.5-3.1 16.3-7.7 23.1-13.6 4.3-3.9 9.9-6.1 15.6-6.3h-.3zm134.5-159.4v4.5c11.1-8.9 23.7-16 37.1-20.9 13.7-4.9 28.2-7.4 42.7-7.2 7.2 0 14.4.5 21.5 1.4 7.2.8 14.3 2.4 21.1 4.9 6 2 11.4 5.3 16 9.6 4.3 4.2 6.6 9.9 6.4 15.9 0 3.2-.6 6.4-1.9 9.3-1.2 2.8-3 5.5-5.1 7.7-2.2 2.2-4.8 3.9-7.7 5.1-3 1.2-6.1 1.9-9.3 1.8-3.5-.1-6.9-1-10-2.5-9.8-3.8-20.3-5.8-30.8-5.7-10.6 0-21.1 2.1-30.8 6.2a79.96 79.96 0 0 0-42.4 42.4c-4.2 9.7-6.3 20.2-6.2 30.8v103.6c0 13.1-10.6 23.7-23.7 23.7-6.4.1-12.5-2.4-17-6.9-4.5-4.4-7-10.4-6.9-16.7v-207c-.1-6.3 2.4-12.3 6.9-16.7 4.5-4.5 10.6-7.1 17-6.9 13.1 0 23.7 10.6 23.7 23.7h-.6zM862.6 242.6c-19.8-13.8-65.3-18.9-100.8-12-4.2-34.4-23.1-64.5-56.2-91.2l-19-13.8-13.3 19.8c-17.2 29-25 62.7-22.3 96.4 1.4 18.6 7.4 36.7 17.3 52.5-20.6 10.7-43.7 16-66.9 15.4H3.9l-1.6 6.9C-3.5 350.9-3.5 458.4 64 541c51.3 62.8 127.3 94.6 227.2 94.6 216.5 0 376.9-104.1 452-292.5 29.8.8 93.3 0 125.6-64.5.8-1.7 2.5-5.2 8.2-18l3.3-6.9-18.2-11.2.5.1zM481.6 0h-90.9v86h90.9V0zm0 103.2h-90.9v86h90.9v-86zm-107.5 0h-90.9v86h90.9v-86zm-107.5 0h-90.8v86h90.9l-.1-86zM159.2 206.4H68.4v86h90.9l-.1-86zm107.4 0h-90.8v86h90.9l-.1-86zm107.5 0h-90.9v86h90.9v-86zm107.5 0h-90.9v86h90.9v-86zm107.4 0h-90.9v86H589v-86z"/></svg>